<svg xmlns="http://www.w3.org/2000/svg" viewBox="0 0 900 520">
<rect width="900" height="520" rx="30" fill="#edf3f8"/>
<rect x="150" y="170" width="600" height="260" rx="18" fill="#fff" stroke="#224f7f" stroke-width="10"/>
<path d="M110 190 L190 70 H710 L790 190 Z" fill="#224f7f"/>
<path d="M165 190h570" stroke="#f3a447" stroke-width="18" stroke-dasharray="55 25"/>
<rect x="385" y="260" width="130" height="170" rx="10" fill="#d7e4ee" stroke="#224f7f" stroke-width="8"/>
<rect x="205" y="245" width="130" height="95" rx="10" fill="#d7e4ee" stroke="#224f7f" stroke-width="8"/>
<rect x="565" y="245" width="130" height="95" rx="10" fill="#d7e4ee" stroke="#224f7f" stroke-width="8"/>
<rect x="300" y="100" width="300" height="82" rx="12" fill="#fff"/>
<text x="450" y="153" text-anchor="middle" font-family="Arial" font-size="34" font-weight="700" fill="#224f7f">TIENDA DE MATEMÁTICAS</text>
<circle cx="450" cy="330" r="42" fill="#f3a447" stroke="#17344e" stroke-width="8"/>
<rect x="430" y="292" width="40" height="70" rx="10" fill="#17344e"/>
<path d="M426 292v-22c0-34 48-34 48 0v22" fill="none" stroke="#17344e" stroke-width="12"/>
<text x="450" y="485" text-anchor="middle" font-family="Arial" font-size="30" font-weight="700" fill="#b53d3d">SISTEMA BLOQUEADO</text>
</svg>